<svg version="1.1" preserveAspectRatio="none" xmlns="http://www.w3.org/2000/svg" width="500" height="500" viewBox="0 0 500 500"><rect width="100%" height="100%" fill="#005F40" fill-opacity="1"/><svg viewBox="54.5373 52.6548 397.7466 247.7519" width="333" height="207.4219684090323" x="83.5px" y="146.289px" xmlns="http://www.w3.org/2000/svg" xmlns:xlink="http://www.w3.org/1999/xlink" preserveAspectRatio="none"><defs></defs><style>.companyName {fill:#EDEDED;fill-opacity:1;}.icon1 {fill:#EDEDED;fill-opacity:1;}.icon2 {fill:#163D26;fill-opacity:1;}.icon3 {fill:#9C9C9C;fill-opacity:1;}.icon3-str {stroke:#9C9C9C;stroke-opacity:1;}</style><g opacity="1" transform="rotate(0 54.5373 240.4067)">
<svg width="397.7466" height="60" x="54.5373" y="240.4067" version="1.1" preserveAspectRatio="none" viewBox="0.84 -32.4 265.16 40">
  <g transform="matrix(1 0 0 1 0 0)" class="companyName"><path id="id-D6z1nYkh17" d="M8.80 0.40Q5.80 0.40 3.84-1.06Q1.88-2.52 0.84-5.56L0.84-5.56L5.08-7.32Q6.28-3.76 8.48-3.76L8.48-3.76Q9.32-3.76 9.74-4.14Q10.16-4.52 10.16-5.20L10.16-5.20Q10.16-6.12 9.58-6.84Q9-7.56 7.28-9.04L7.28-9.04L5.12-10.88Q3.20-12.52 2.28-13.92Q1.36-15.32 1.36-17.28L1.36-17.28Q1.36-19.12 2.28-20.54Q3.20-21.96 4.78-22.74Q6.36-23.52 8.24-23.52L8.24-23.52Q11.04-23.52 12.86-21.94Q14.68-20.36 15.36-17.52L15.36-17.52L11.44-15.76Q11.08-17.20 10.28-18.22Q9.48-19.24 8.40-19.24L8.40-19.24Q7.68-19.24 7.24-18.82Q6.80-18.40 6.80-17.72L6.80-17.72Q6.80-17.04 7.48-16.26Q8.16-15.48 9.60-14.24L9.60-14.24L11.76-12.32Q13.64-10.72 14.70-9.24Q15.76-7.76 15.76-5.80L15.76-5.80Q15.76-3.88 14.82-2.48Q13.88-1.08 12.28-0.34Q10.68 0.40 8.80 0.40L8.80 0.40Z M22.48 0.40Q20.48 0.40 19.42-1.08Q18.36-2.56 18.36-4.88L18.36-4.88L18.36-23.12L24.40-23.12L24.40-5.72Q24.40-4.76 24.74-4.28Q25.08-3.80 25.88-3.80L25.88-3.80Q26.72-3.80 28-4.68L28-4.68L28-23.12L34.04-23.12L34.04 0L28 0L28-2.16Q25.24 0.40 22.48 0.40L22.48 0.40Z M38.20 0L38.20-23.12L44.20-23.12L44.20-20.80Q47.00-23.52 49.80-23.52L49.80-23.52Q51.80-23.52 52.86-22.04Q53.92-20.56 53.92-18.24L53.92-18.24L53.92 0L47.88 0L47.88-17.28Q47.88-18.24 47.56-18.70Q47.24-19.16 46.48-19.16L46.48-19.16Q45.56-19.16 44.20-18.20L44.20-18.20L44.20 0L38.20 0Z M64.64 0.40Q61.64 0.40 59.68-1.06Q57.72-2.52 56.68-5.56L56.68-5.56L60.92-7.32Q62.12-3.76 64.32-3.76L64.32-3.76Q65.16-3.76 65.58-4.14Q66-4.52 66-5.20L66-5.20Q66-6.12 65.42-6.84Q64.84-7.56 63.12-9.04L63.12-9.04L60.96-10.88Q59.04-12.52 58.12-13.92Q57.20-15.32 57.20-17.28L57.20-17.28Q57.20-19.12 58.12-20.54Q59.04-21.96 60.62-22.74Q62.20-23.52 64.08-23.52L64.08-23.52Q66.88-23.52 68.70-21.94Q70.52-20.36 71.20-17.52L71.20-17.52L67.28-15.76Q66.92-17.20 66.12-18.22Q65.32-19.24 64.24-19.24L64.24-19.24Q63.52-19.24 63.08-18.82Q62.64-18.40 62.64-17.72L62.64-17.72Q62.64-17.04 63.32-16.26Q64-15.48 65.44-14.24L65.44-14.24L67.60-12.32Q69.48-10.72 70.54-9.24Q71.60-7.76 71.60-5.80L71.60-5.80Q71.60-3.88 70.66-2.48Q69.72-1.08 68.12-0.34Q66.52 0.40 64.64 0.40L64.64 0.40Z M81.72 0.40Q77.92 0.40 75.94-1.68Q73.96-3.76 73.96-7.68L73.96-7.68L73.96-15.44Q73.96-19.36 75.96-21.44Q77.96-23.52 81.72-23.52L81.72-23.52Q85.60-23.52 87.40-21.44Q89.20-19.36 89.20-15.28L89.20-15.28L89.20-11.24L79.96-11.24L79.96-6.76Q79.96-5.28 80.42-4.60Q80.88-3.92 81.76-3.92L81.76-3.92Q83.56-3.92 83.56-6.52L83.56-6.52L83.56-8.76L89.16-8.76L89.16-6.76Q89.16-3.28 87.24-1.44Q85.32 0.40 81.72 0.40L81.72 0.40ZM79.96-14.12L83.56-14.12L83.56-16.36Q83.56-17.88 83.12-18.54Q82.68-19.20 81.72-19.20L81.72-19.20Q80.80-19.20 80.38-18.48Q79.96-17.76 79.96-15.92L79.96-15.92L79.96-14.12Z M99.72 0.28Q96.24 0.28 94.90-1.28Q93.56-2.84 93.56-6.04L93.56-6.04L93.56-19.16L91.28-19.16L91.28-23.12L93.56-23.12L93.56-30.08L99.68-30.08L99.68-23.12L103.04-23.12L103.04-19.16L99.68-19.16L99.68-6.64Q99.68-4.60 101.72-4.60L101.72-4.60Q102.80-4.60 103.44-4.76L103.44-4.76L103.44-0.04Q101.32 0.28 99.72 0.28L99.72 0.28Z M116.60 0L116.60-32.40L122.64-32.40L122.64-21Q125.16-23.52 128.32-23.52L128.32-23.52Q130.28-23.52 131.32-22.04Q132.36-20.56 132.36-18.24L132.36-18.24L132.36 0L126.36 0L126.36-17.28Q126.36-18.24 126.04-18.70Q125.72-19.16 124.96-19.16L124.96-19.16Q123.96-19.16 122.64-18.16L122.64-18.16L122.64 0L116.60 0Z M136.44-26.92L136.44-31.44L142.52-31.44L142.52-26.92L136.44-26.92ZM136.48 0L136.48-23.12L142.52-23.12L142.52 0L136.48 0Z M147 0L147-32.40L153-32.40L153 0L147 0Z M157.56 0L157.56-32.40L163.56-32.40L163.56 0L157.56 0Z M174.56 0.40Q171.56 0.40 169.60-1.06Q167.64-2.52 166.60-5.56L166.60-5.56L170.84-7.32Q172.04-3.76 174.24-3.76L174.24-3.76Q175.08-3.76 175.50-4.14Q175.92-4.52 175.92-5.20L175.92-5.20Q175.92-6.12 175.34-6.84Q174.76-7.56 173.04-9.04L173.04-9.04L170.88-10.88Q168.96-12.52 168.04-13.92Q167.12-15.32 167.12-17.28L167.12-17.28Q167.12-19.12 168.04-20.54Q168.96-21.96 170.54-22.74Q172.12-23.52 174-23.52L174-23.52Q176.80-23.52 178.62-21.94Q180.44-20.36 181.12-17.52L181.12-17.52L177.20-15.76Q176.84-17.20 176.04-18.22Q175.24-19.24 174.16-19.24L174.16-19.24Q173.44-19.24 173-18.82Q172.56-18.40 172.56-17.72L172.56-17.72Q172.56-17.04 173.24-16.26Q173.92-15.48 175.36-14.24L175.36-14.24L177.52-12.32Q179.40-10.72 180.46-9.24Q181.52-7.76 181.52-5.80L181.52-5.80Q181.52-3.88 180.58-2.48Q179.64-1.08 178.04-0.34Q176.44 0.40 174.56 0.40L174.56 0.40Z M194.36 7.60L194.36-23.12L200.36-23.12L200.36-21.40Q202.68-23.52 205.28-23.52L205.28-23.52Q207.88-23.48 209.08-21.40Q210.28-19.32 210.28-16.28L210.28-16.28L210.28-7.24Q210.28-3.80 208.96-1.70Q207.64 0.40 205.08 0.40L205.08 0.40Q202.80 0.40 200.36-1.76L200.36-1.76L200.36 7.60L194.36 7.60ZM202.40-3.64Q204.24-3.64 204.24-7L204.24-7L204.24-16.68Q204.24-19.72 202.44-19.72L202.44-19.72Q201.48-19.72 200.36-18.84L200.36-18.84L200.36-4.32Q201.44-3.64 202.40-3.64L202.40-3.64Z M218.68 0.40Q217.08 0.40 215.88-0.40Q214.68-1.20 214.06-2.50Q213.44-3.80 213.44-5.20L213.44-5.20Q213.44-7.88 214.76-9.60Q216.08-11.32 217.94-12.28Q219.80-13.24 222.88-14.36L222.88-14.36L222.88-16.52Q222.88-17.76 222.54-18.40Q222.20-19.04 221.32-19.04L221.32-19.04Q220.44-19.04 220.08-18.48Q219.72-17.92 219.64-16.88L219.64-16.88L219.52-15.28L213.84-15.52Q214-19.64 215.96-21.58Q217.92-23.52 221.84-23.52L221.84-23.52Q225.24-23.52 226.96-21.64Q228.68-19.76 228.68-16.48L228.68-16.48L228.68-5.72Q228.68-3 229.08 0L229.08 0L223.68 0Q223.52-1.16 223.16-3.32L223.16-3.32Q222.68-1.72 221.54-0.66Q220.40 0.40 218.68 0.40L218.68 0.40ZM220.84-3.88Q221.44-3.88 221.98-4.28Q222.52-4.68 222.88-5.20L222.88-5.20L222.88-11.56Q221-10.48 220-9.32Q219-8.16 219-6.48L219-6.48Q219-5.24 219.48-4.56Q219.96-3.88 220.84-3.88L220.84-3.88Z M232.76 0L232.76-23.12L238.80-23.12L238.80-19.40Q240.00-21.48 241.14-22.44Q242.28-23.40 243.80-23.40L243.80-23.40Q244.16-23.40 244.72-23.32L244.72-23.32L244.72-17.16Q243.68-17.64 242.56-17.64L242.56-17.64Q240.36-17.64 238.80-15.40L238.80-15.40L238.80 0L232.76 0Z M247.48 0L247.48-32.40L253.48-32.40L253.48-14.16L259.28-23.12L266.00-23.12L260.00-13.72L265.92 0L259.40 0L255.28-11.20L253.48-8.80L253.48 0L247.48 0Z"/></g>
</svg>
</g><g opacity="1" transform="rotate(0 173.8612 52.6548)">
<svg width="159.0988" height="147.7519" x="173.8612" y="52.6548" version="1.1" preserveAspectRatio="none" viewBox="19.99913787841797 25.737613677978516 159.99826049804688 148.58740234375">
  <g transform="matrix(1 0 0 1 0 0)"><g><path d="M113.515 154.055c-7.993.001-14.407-4.286-14.678-4.47a2.027 2.027 0 0 1 2.275-3.355c.053.036 5.688 3.77 12.404 3.77h.12c6.757-.045 12.082-3.715 12.135-3.752a2.05 2.05 0 0 1 1.165-.368c.622 0 1.028.272 1.271.434 1.654 1.109 6.049 3.686 11.116 3.686h.501c4.973 0 9.421-2.364 11.322-3.373.81-.43 1.144-.608 1.629-.667.724-.082 1.262.248 1.535.438 1.557 1.083 5.723 3.601 10.771 3.601h.503c5.065 0 9.461-2.576 11.117-3.685.259-.173.651-.435 1.272-.435a2.028 2.028 0 0 1 1.028 3.774c-2.53 1.688-7.491 4.4-13.413 4.4h-.503c-5.309 0-9.681-2.139-12.22-3.749-2.261 1.198-7.221 3.749-13.036 3.749h-.503c-5.252 0-9.741-2.126-12.401-3.749-2.183 1.268-7.166 3.708-13.262 3.749-.049.002-.099.002-.148.002z" data-color="1" class="icon1"></path><path d="M113.515 140.541c-7.993.001-14.407-4.286-14.678-4.47a2.027 2.027 0 0 1 2.275-3.355c.053.036 5.688 3.77 12.404 3.77h.12c6.757-.045 12.082-3.715 12.135-3.752a2.05 2.05 0 0 1 1.165-.368c.622 0 1.028.272 1.271.434 1.654 1.109 6.049 3.686 11.116 3.686h.501c4.973 0 9.421-2.364 11.322-3.373.81-.43 1.144-.608 1.629-.667.724-.082 1.262.248 1.535.438 1.557 1.083 5.723 3.601 10.771 3.601h.503c5.065 0 9.461-2.576 11.117-3.685.259-.173.651-.435 1.272-.435a2.028 2.028 0 0 1 1.028 3.774c-2.53 1.688-7.491 4.4-13.413 4.4h-.503c-5.309 0-9.681-2.139-12.22-3.749-2.261 1.198-7.221 3.749-13.036 3.749h-.503c-5.252 0-9.741-2.126-12.401-3.749-2.183 1.268-7.166 3.708-13.262 3.749-.049.002-.099.002-.148.002z" data-color="2" class="icon2"></path><path d="M165.588 166.217h-.503c-5.309 0-9.681-2.139-12.22-3.749-2.261 1.198-7.221 3.749-13.036 3.749h-.503c-5.96 0-10.938-2.738-13.375-4.372.054.034.35.198.777.242a2.028 2.028 0 0 1 .208-4.044c.622 0 1.028.272 1.271.434 1.654 1.109 6.049 3.686 11.116 3.686h.501c4.973 0 9.421-2.364 11.322-3.373.81-.43 1.144-.608 1.629-.667.724-.078 1.262.248 1.535.438 1.557 1.083 5.723 3.601 10.771 3.601h.503c5.065 0 9.461-2.576 11.117-3.685.259-.173.651-.435 1.272-.435a2.028 2.028 0 0 1 1.028 3.774c-2.53 1.689-7.491 4.401-13.413 4.401z" data-color="1" class="icon1"></path><path d="M21.351 168.92c37.838-36.487 102.704 4.054 102.704 4.054L21.351 168.92z" data-color="2" class="icon2"></path><path d="M158.266 113.614a2.025 2.025 0 0 1-1.617-.802l-27.864-36.736-13.489 17.783a2.027 2.027 0 0 1-3.231-2.449l15.104-19.913a2.029 2.029 0 0 1 3.23 0l29.479 38.866a2.028 2.028 0 0 1-1.612 3.251z" data-color="1" class="icon1"></path><path d="M104.298 106.424c3.842-3.767 5.717-9.363 4.451-14.998-1.481-6.593-6.821-11.31-13.107-12.333-3.193-8.541-12.261-13.642-21.409-11.587-9.991 2.245-16.271 12.165-14.026 22.157a18.445 18.445 0 0 0 3.847 7.787c-.635.627-1.187 1.325-1.698 2.051l3.59 5.905h-6.081c-.106.59-.172 1.189-.205 1.795l9.634 14.695a14.755 14.755 0 0 0 8.421.577 15.006 15.006 0 0 0 1.84-.554c3.471 3.839 8.849 5.755 14.259 4.539 7.993-1.796 13.017-9.732 11.221-17.725a14.733 14.733 0 0 0-.737-2.309z" data-color="3" class="icon3"></path><path d="M153.11 33.783a2.028 2.028 0 0 1-2.027-2.027v-4.054a2.028 2.028 0 0 1 4.054 0v4.054a2.028 2.028 0 0 1-2.027 2.027z" data-color="3" class="icon3"></path><path d="M153.11 66.216a2.028 2.028 0 0 1-2.027-2.027v-4.054a2.028 2.028 0 0 1 4.054 0v4.054a2.028 2.028 0 0 1-2.027 2.027z" data-color="3" class="icon3"></path><path d="M162.261 45.988a8.784 8.784 0 1 1-17.568 0 8.784 8.784 0 0 1 17.568 0z" data-color="3" class="icon3"></path><path d="M142.09 37.812a2.02 2.02 0 0 1-1.433-.594l-2.357-2.357a2.026 2.026 0 1 1 2.866-2.866l2.357 2.357a2.026 2.026 0 0 1-1.433 3.46z" data-color="3" class="icon3"></path><path d="M167.078 60.096a2.02 2.02 0 0 1-1.433-.594l-2.357-2.357a2.026 2.026 0 1 1 2.866-2.866l2.357 2.357a2.026 2.026 0 0 1-1.433 3.46z" data-color="3" class="icon3"></path><path d="M136.893 48.648h-2.703a2.028 2.028 0 0 1 0-4.054h2.703a2.028 2.028 0 0 1 0 4.054z" data-color="3" class="icon3"></path><path d="M172.029 48.648h-2.703a2.028 2.028 0 0 1 0-4.054h2.703a2.028 2.028 0 0 1 0 4.054z" data-color="3" class="icon3"></path><path d="M139.734 60.096a2.026 2.026 0 0 1-1.433-3.46l2.357-2.357a2.026 2.026 0 1 1 2.866 2.866l-2.357 2.357a2.021 2.021 0 0 1-1.433.594z" data-color="3" class="icon3"></path><path d="M164.721 37.812a2.026 2.026 0 0 1-1.433-3.46l2.357-2.357a2.026 2.026 0 1 1 2.866 2.866l-2.357 2.357a2.021 2.021 0 0 1-1.433.594z" data-color="3" class="icon3"></path><path d="M123.378 174.325c-.318 0-.639-.074-.94-.231-12.024-6.299-23.768-10.972-34.906-13.887a2.028 2.028 0 0 1 1.026-3.922c11.434 2.993 23.466 7.777 35.761 14.217a2.029 2.029 0 0 1 .855 2.737 2.022 2.022 0 0 1-1.796 1.086z" data-color="1" class="icon1"></path><path d="M80.139 158.109a2.17 2.17 0 0 1-.289-.02c-9.024-1.289-15.983-1.706-22.575-1.334-1.157.044-2.073-.794-2.137-1.912a2.028 2.028 0 0 1 1.912-2.137c6.869-.379 14.076.041 23.372 1.368a2.028 2.028 0 0 1-.283 4.035z" data-color="1" class="icon1"></path><path d="M22.027 170.271a2.026 2.026 0 0 1-1.425-3.468c7.117-7.042 16.367-11.53 27.493-13.341a2.019 2.019 0 0 1 2.327 1.675 2.028 2.028 0 0 1-1.675 2.327c-10.278 1.672-18.789 5.784-25.295 12.222a2.02 2.02 0 0 1-1.425.585z" data-color="1" class="icon1"></path><path d="M50.406 166.217a2.028 2.028 0 0 1-2.027-2.027v-22.973a2.028 2.028 0 0 1 4.054 0v22.973a2.028 2.028 0 0 1-2.027 2.027z" data-color="1" class="icon1"></path><path d="m72.703 140.541-12.545-17.568h9.843l-11.518-17.568h7.464L50.509 80.016l-15.438 25.389h7.464l-11.518 17.568h9.842l-12.545 17.568h44.389z" data-color="2" class="icon2"></path><path d="M72.705 141.892a2.028 2.028 0 0 1-1.651-.849l-12.545-17.568a2.03 2.03 0 0 1-.153-2.106 2.03 2.03 0 0 1 1.803-1.099h6.089l-9.461-14.43a2.026 2.026 0 0 1-.087-2.075 2.026 2.026 0 0 1 1.783-1.064h3.86l-5.234-8.608a2.027 2.027 0 1 1 3.463-2.107l7.107 11.689a2.026 2.026 0 0 1-1.731 3.08h-3.711l9.461 14.43c.408.623.442 1.419.087 2.075a2.026 2.026 0 0 1-1.783 1.064h-5.904l10.257 14.362a2.028 2.028 0 0 1-1.65 3.206z" data-color="1" class="icon1"></path><path d="M28.313 141.892a2.025 2.025 0 0 1-1.648-3.205l10.257-14.362h-5.904a2.026 2.026 0 0 1-1.783-1.064 2.026 2.026 0 0 1 .087-2.075l9.461-14.43h-3.711a2.028 2.028 0 0 1-1.731-3.08l15.438-25.39a2.028 2.028 0 0 1 3.463 0l4.806 7.904a2.025 2.025 0 0 1-.678 2.784 2.024 2.024 0 0 1-2.784-.678l-3.075-5.056-11.832 19.462h3.859c.744 0 1.429.408 1.783 1.064a2.026 2.026 0 0 1-.087 2.075l-9.461 14.43h6.089c.759 0 1.454.425 1.803 1.099a2.03 2.03 0 0 1-.153 2.106l-12.545 17.568a2.036 2.036 0 0 1-1.654.848z" data-color="1" class="icon1"></path><path d="M81.487 163.514a2.028 2.028 0 0 1-2.027-2.027v-68.92a2.028 2.028 0 0 1 4.054 0v68.92a2.028 2.028 0 0 1-2.027 2.027z" data-color="1" class="icon1"></path><path d="M83.468 110.869c-.647 0-1.3-.063-1.949-.191a2.028 2.028 0 0 1-1.594-2.383 2.04 2.04 0 0 1 2.383-1.594c2.453.492 4.958-.61 6.229-2.733 1.221-2.035 1.068-4.687-.379-6.601a2.025 2.025 0 0 1 .395-2.839 2.024 2.024 0 0 1 2.839.395c2.472 3.268 2.717 7.637.623 11.13-1.811 3.021-5.091 4.816-8.547 4.816z" data-color="1" class="icon1"></path><path d="M132.839 91.6h-16.281a2.028 2.028 0 0 1 0-4.054h16.281a2.028 2.028 0 0 1 0 4.054z" data-color="1" class="icon1"></path><path d="M177.434 125.676c-4.054-8.257-17.55-13.962-25.676-13.511-8.126-.451-21.622 5.254-25.676 13.511h51.352z" data-color="3" class="icon3"></path><path d="M177.436 126.352a2.022 2.022 0 0 1-1.78-1.056c-3.518-6.448-16.037-11.5-23.795-11.109a2.29 2.29 0 0 1-.203 0c-7.762-.394-20.277 4.661-23.795 11.109a2.026 2.026 0 1 1-3.558-1.942c4.348-7.972 18.317-13.622 27.455-13.221 9.134-.406 23.107 5.25 27.455 13.221a2.026 2.026 0 0 1-1.779 2.998z" data-color="1" class="icon1"></path></g></g>
</svg>
</g></svg></svg>